<svg xmlns="http://www.w3.org/2000/svg" width="23.225" height="23.225" viewBox="0 0 23.225 23.225"><defs><style>.a{fill:none;}.b{fill:#cbcbcb;}</style></defs><path class="a" d="M0,0H23.225V23.225H0Z"/><path class="b" d="M20.535,12.447l.013.014-8.9,8.9-8.9-8.9.013-.014a6.29,6.29,0,0,1,8.883-8.858,6.29,6.29,0,0,1,8.883,8.858ZM4.468,5.276a4.355,4.355,0,0,0,0,6.158l7.185,7.185,7.185-7.185A4.355,4.355,0,0,0,12.68,5.276L8.574,9.382,7.205,8.011l3.06-3.06a4.355,4.355,0,0,0-5.8.323Z" transform="translate(-0.041 -0.067)"/></svg>