<svg xmlns="http://www.w3.org/2000/svg" width="18" height="18" viewBox="0 0 18 18"><defs><style>.a{fill:none;}.b{fill:#999;}</style></defs><path class="a" d="M0,0H18V18H0Z"/><path class="b" d="M9.669,18.235,4.953,13.48a6.764,6.764,0,0,1,0-9.51,6.631,6.631,0,0,1,9.432,0,6.764,6.764,0,0,1,0,9.51Zm3.668-5.812a5.261,5.261,0,0,0,0-7.4A5.157,5.157,0,0,0,6,5.027a5.261,5.261,0,0,0,0,7.4l3.668,3.7,3.668-3.7Zm-3.668-2.2a1.494,1.494,0,1,1,1.482-1.494A1.488,1.488,0,0,1,9.669,10.219Z" transform="translate(-0.669 -0.446)"/></svg>