<svg xmlns="http://www.w3.org/2000/svg" width="24.922" height="24.922" viewBox="0 0 24.922 24.922"><defs><style>.a{fill:none;}.b{fill:#ff6f00;}</style></defs><path class="a" d="M0,0H24.922V24.922H0Z"/><path class="b" d="M3.813,2.9,12.346,1l8.533,1.9a1.038,1.038,0,0,1,.813,1.014V14.281a6.23,6.23,0,0,1-2.774,5.184l-6.572,4.381L5.775,19.464A6.231,6.231,0,0,1,3,14.282V3.91A1.038,1.038,0,0,1,3.813,2.9ZM12.346,13.98l3.052,1.6-.583-3.4L17.284,9.78l-3.412-.5L12.346,6.192,10.819,9.284l-3.411.5,2.468,2.407-.582,3.4Z" transform="translate(0.115 0.038)"/></svg>